<?xml version="1.0" encoding="UTF-8" standalone="no"?>
<svg width="1100" height="650" viewBox="0 0 1100 650" xmlns="http://www.w3.org/2000/svg">
  <defs>
    <marker id="arrow" markerWidth="10" markerHeight="10" refX="8" refY="3" orient="auto">
      <path d="M0,0 L0,6 L9,3 z" fill="#333"/>
    </marker>
    <style>
      .box { fill:#f5f7fb; stroke:#3b82f6; stroke-width:2; rx:14; ry:14; }
      .db { fill:#eef6ff; stroke:#2563eb; stroke-width:2; rx:40; ry:40; }
      .title { font: 600 22px 'Segoe UI', Arial; fill:#111827; }
      .label { font: 500 16px 'Segoe UI', Arial; fill:#111827; }
      .small { font: 400 14px 'Segoe UI', Arial; fill:#374151; }
      .arrow { stroke:#333; stroke-width:2; marker-end:url(#arrow); fill:none; }
      .group { fill:#ffffff; stroke:#e5e7eb; stroke-width:2; rx:18; ry:18; }
    </style>
  </defs>
  <text x="550" y="40" text-anchor="middle" class="title">TUK — CloudTrail ➜ S3 ➜ Athena (us-east-1)</text>
  <text x="550" y="65" text-anchor="middle" class="small">Logs in S3 • Query with Athena • Catalog via Glue</text>
  <rect x="50" y="90" width="1000" height="480" class="group"/>
  <text x="70" y="120" class="label">AWS Account</text>
  <rect x="120" y="180" width="220" height="90" class="box"/>
  <text x="230" y="205" text-anchor="middle" class="label">AWS CloudTrail</text>
  <text x="230" y="230" text-anchor="middle" class="small">All regions, mgmt events</text>
  <rect x="430" y="170" width="240" height="110" class="db"/>
  <text x="550" y="205" text-anchor="middle" class="label">S3: CloudTrail Logs</text>
  <text x="550" y="230" text-anchor="middle" class="small">Encrypted + Versioned</text>
  <rect x="430" y="320" width="240" height="110" class="db"/>
  <text x="550" y="355" text-anchor="middle" class="label">S3 Buckets (Data events)</text>
  <text x="550" y="380" text-anchor="middle" class="small">Optional object logging</text>
  <rect x="790" y="170" width="220" height="90" class="box"/>
  <text x="900" y="205" text-anchor="middle" class="label">Amazon Athena</text>
  <text x="900" y="230" text-anchor="middle" class="small">SQL over logs</text>
  <rect x="790" y="320" width="220" height="90" class="box"/>
  <text x="900" y="355" text-anchor="middle" class="label">AWS Glue Catalog</text>
  <text x="900" y="380" text-anchor="middle" class="small">Table + partitions</text>
  <rect x="790" y="470" width="220" height="90" class="db"/>
  <text x="900" y="505" text-anchor="middle" class="label">S3: Athena Results</text>
  <text x="900" y="530" text-anchor="middle" class="small">Query outputs</text>
  <rect x="120" y="470" width="220" height="90" class="box"/>
  <text x="230" y="505" text-anchor="middle" class="label">You / Analyst</text>
  <text x="230" y="530" text-anchor="middle" class="small">Write SQL queries</text>
  <line x1="340" y1="225" x2="430" y2="225" class="arrow"/>
  <line x1="670" y1="225" x2="790" y2="225" class="arrow"/>
  <line x1="900" y1="260" x2="900" y2="320" class="arrow"/>
  <line x1="900" y1="410" x2="900" y2="470" class="arrow"/>
  <line x1="340" y1="515" x2="790" y2="515" class="arrow"/>
  <text x="385" y="215" text-anchor="middle" class="small">Deliver logs</text>
  <text x="730" y="215" text-anchor="middle" class="small">Query logs</text>
  <text x="915" y="300" text-anchor="start" class="small">Catalog</text>
  <text x="915" y="455" text-anchor="start" class="small">Results to S3</text>
  <text x="565" y="515" text-anchor="middle" class="small">Run queries</text>
</svg>
